<mxfile host="app.diagrams.net" modified="2022-08-12T01:25:32.409Z" agent="5.0 (Macintosh; Intel Mac OS X 10_15_7) AppleWebKit/537.36 (KHTML, like Gecko) Chrome/104.0.0.0 Safari/537.36" etag="OUlb6yrlvmAfpwmR3huE" version="20.2.3" type="github">
  <diagram id="v5TvbeSsXCkBYrWcOo3L" name="第 1 页">
    <mxGraphModel dx="946" dy="614" grid="1" gridSize="10" guides="1" tooltips="1" connect="1" arrows="1" fold="1" page="1" pageScale="1" pageWidth="827" pageHeight="1169" math="0" shadow="0">
      <root>
        <mxCell id="0" />
        <mxCell id="1" parent="0" />
        <mxCell id="US0vOEf8Ahupk0masElC-1" value="&lt;font style=&quot;font-size: 18px;&quot;&gt;http状态码&lt;/font&gt;" style="rounded=0;whiteSpace=wrap;html=1;fontColor=#5C5C5C;strokeColor=#006658;fillColor=#21C0A5;" vertex="1" parent="1">
          <mxGeometry x="30" y="160" width="120" height="60" as="geometry" />
        </mxCell>
        <mxCell id="US0vOEf8Ahupk0masElC-2" value="" style="shape=curlyBracket;whiteSpace=wrap;html=1;rounded=1;fontSize=18;fontColor=#5C5C5C;strokeColor=#006658;fillColor=#21C0A5;" vertex="1" parent="1">
          <mxGeometry x="160" y="25" width="20" height="625" as="geometry" />
        </mxCell>
        <mxCell id="US0vOEf8Ahupk0masElC-3" value="&lt;div style=&quot;text-align: left;&quot;&gt;&lt;span style=&quot;background-color: initial;&quot;&gt;1xx 消息&lt;/span&gt;&lt;/div&gt;&lt;span style=&quot;color: rgb(92, 92, 92); font-size: 14px;&quot;&gt;&lt;div style=&quot;text-align: left;&quot;&gt;&lt;span style=&quot;background-color: initial;&quot;&gt;代表请求已经被接受，需要继续处理&lt;/span&gt;&lt;/div&gt;&lt;/span&gt;" style="rounded=1;whiteSpace=wrap;html=1;fontSize=18;strokeColor=#6c8ebf;fillColor=#dae8fc;" vertex="1" parent="1">
          <mxGeometry x="200" y="40" width="160" height="60" as="geometry" />
        </mxCell>
        <mxCell id="US0vOEf8Ahupk0masElC-4" value="2xx 成功&lt;br&gt;&lt;span style=&quot;color: rgb(92, 92, 92); font-size: 14px;&quot;&gt;代表请求已经被服务器接收、理解并接受&lt;/span&gt;" style="rounded=1;whiteSpace=wrap;html=1;fontSize=18;strokeColor=#6c8ebf;fillColor=#dae8fc;align=left;" vertex="1" parent="1">
          <mxGeometry x="200" y="150" width="180" height="70" as="geometry" />
        </mxCell>
        <mxCell id="US0vOEf8Ahupk0masElC-5" value="3xx 重定向&lt;br&gt;&lt;font style=&quot;font-size: 14px;&quot;&gt;代表客户端需要进一步操作才能完成请求，这些状态码用来重定向，后续的请求地址在本次响应的Location域中指明&lt;/font&gt;" style="rounded=1;whiteSpace=wrap;html=1;fontSize=18;strokeColor=#6c8ebf;fillColor=#dae8fc;align=left;" vertex="1" parent="1">
          <mxGeometry x="200" y="267.5" width="200" height="140" as="geometry" />
        </mxCell>
        <mxCell id="US0vOEf8Ahupk0masElC-6" value="4xx 客户端错误" style="rounded=1;whiteSpace=wrap;html=1;fontSize=18;strokeColor=#6c8ebf;fillColor=#dae8fc;" vertex="1" parent="1">
          <mxGeometry x="200" y="460" width="140" height="30" as="geometry" />
        </mxCell>
        <mxCell id="US0vOEf8Ahupk0masElC-7" value="5xx 服务器端错误" style="rounded=1;whiteSpace=wrap;html=1;fontSize=18;strokeColor=#6c8ebf;fillColor=#dae8fc;" vertex="1" parent="1">
          <mxGeometry x="200" y="570" width="150" height="30" as="geometry" />
        </mxCell>
        <mxCell id="US0vOEf8Ahupk0masElC-22" value="&lt;ul&gt;&lt;li&gt;200 （成功）请求成功&lt;/li&gt;&lt;li&gt;201 （已创建）请求创建，并且服务器创建了新的资源&lt;/li&gt;&lt;li&gt;202（已接受）服务器已接受请求，但尚未处理&lt;/li&gt;&lt;li&gt;203（非授权信息）服务器处理了请求，但返回信息来自另一来源&lt;/li&gt;&lt;li&gt;204（无内容）服务器处理请求，但是没有返回任何内容&lt;/li&gt;&lt;/ul&gt;" style="text;html=1;strokeColor=none;fillColor=none;align=left;verticalAlign=middle;whiteSpace=wrap;rounded=0;fontSize=14;fontColor=#5C5C5C;" vertex="1" parent="1">
          <mxGeometry x="360" y="142.5" width="390" height="85" as="geometry" />
        </mxCell>
        <mxCell id="US0vOEf8Ahupk0masElC-23" value="&lt;ul&gt;&lt;li&gt;301（永久重定向）请求资源已被永久移动到新的URL，浏览器会自动定位到新的URL&lt;/li&gt;&lt;li&gt;302（临时重定向）资源只是临时被移动，但后续仍可使用该URL进行访问&lt;/li&gt;&lt;li&gt;304（未修改）自上次请求网页内容未发生变化。服务器会返回此状态码，不会返回任何资源&lt;/li&gt;&lt;li&gt;305 （使用代理）请求者只能通过代理访问该网页&lt;/li&gt;&lt;/ul&gt;" style="text;html=1;strokeColor=none;fillColor=none;align=left;verticalAlign=middle;whiteSpace=wrap;rounded=0;fontSize=14;fontColor=#5C5C5C;" vertex="1" parent="1">
          <mxGeometry x="380" y="280" width="390" height="115" as="geometry" />
        </mxCell>
        <mxCell id="US0vOEf8Ahupk0masElC-24" value="&lt;ul&gt;&lt;li&gt;400 （错误请求）客户端请求报文存在语法错误，服务器无法理解&lt;/li&gt;&lt;li&gt;401（未授权）请求要求用户认证&lt;/li&gt;&lt;li&gt;403（禁止）服务器拒绝请求&lt;/li&gt;&lt;li&gt;404（未找到）服务器找不到请求的网页&lt;/li&gt;&lt;/ul&gt;" style="text;html=1;strokeColor=none;fillColor=none;align=left;verticalAlign=middle;whiteSpace=wrap;rounded=0;fontSize=14;fontColor=#5C5C5C;" vertex="1" parent="1">
          <mxGeometry x="340" y="430" width="390" height="115" as="geometry" />
        </mxCell>
        <mxCell id="US0vOEf8Ahupk0masElC-25" value="&lt;ul&gt;&lt;li&gt;500 （服务器内部错误）&lt;/li&gt;&lt;li&gt;501（服务器不支持请求功能）&lt;/li&gt;&lt;li&gt;503（服务不可用）由于超载或系统维护，服务器暂时无法响应&lt;/li&gt;&lt;li&gt;504（错误网关）服务器作为网关或代理，但是没有及时从上游服务器收到请求&lt;/li&gt;&lt;/ul&gt;" style="text;html=1;strokeColor=none;fillColor=none;align=left;verticalAlign=middle;whiteSpace=wrap;rounded=0;fontSize=14;fontColor=#5C5C5C;" vertex="1" parent="1">
          <mxGeometry x="340" y="560" width="390" height="115" as="geometry" />
        </mxCell>
      </root>
    </mxGraphModel>
  </diagram>
</mxfile>
